# 3ds Max Wavefront OBJ Exporter v0.97b - (c)2007 guruware
# File Created: 04.11.2012 16:45:49

mtllib plane.mtl

#
# object Plane001
#

v  -5.080650 -2.465948 0.000000
v  -5.080650 -4.983052 0.000000
v  -2.589330 -2.465948 0.000000
v  -2.589330 -4.983052 0.000000
v  -0.098010 -2.465948 0.000000
v  -0.098010 -4.983052 0.000000
v  2.393310 -2.465948 0.000000
v  2.393310 -4.983052 0.000000
v  4.884630 -2.465948 0.000000
v  -5.080650 0.051156 0.000000
v  -2.589330 0.051156 0.000000
v  -0.098010 0.051156 0.000000
v  2.393310 0.051156 0.000000
v  4.884630 0.051156 0.000000
v  -5.080650 2.568260 0.000000
v  -2.589330 2.568260 0.000000
v  -0.098010 2.568260 0.000000
v  2.393310 2.568260 0.000000
v  4.884630 2.568260 0.000000
v  -5.080650 5.085365 0.000000
v  -2.589330 5.085365 0.000000
v  -0.098010 5.085365 0.000000
v  2.393310 5.085365 0.000000
v  4.884630 5.085365 0.000000
v  4.884630 -4.983052 0.000000
# 25 vertices

vn 0.000000 0.000000 1.000000
# 1 vertex normals

vt 0.255000 0.979961 0.000000
vt 0.010000 0.979961 0.000000
vt 0.255000 0.737471 0.000000
vt 0.010000 0.737471 0.000000
vt 0.255000 0.494981 0.000000
vt 0.010000 0.494981 0.000000
vt 0.255000 0.252490 0.000000
vt 0.010000 0.252490 0.000000
vt 0.255000 0.010000 0.000000
vt 0.500000 0.979961 0.000000
vt 0.500000 0.737471 0.000000
vt 0.500000 0.494981 0.000000
vt 0.500000 0.252490 0.000000
vt 0.500000 0.010000 0.000000
vt 0.745000 0.979961 0.000000
vt 0.745000 0.737471 0.000000
vt 0.745000 0.494981 0.000000
vt 0.745000 0.252490 0.000000
vt 0.745000 0.010000 0.000000
vt 0.990000 0.979961 0.000000
vt 0.990000 0.737471 0.000000
vt 0.990000 0.494981 0.000000
vt 0.990000 0.252490 0.000000
vt 0.990000 0.010000 0.000000
vt 0.010000 0.010000 0.000000
# 25 texture coords

g Plane001
usemtl wire_135110008
s 1
f 1/1/1 2/2/1 3/3/1 
f 3/3/1 4/4/1 5/5/1 
f 5/5/1 6/6/1 7/7/1 
f 7/7/1 8/8/1 9/9/1 
f 10/10/1 1/1/1 11/11/1 
f 11/11/1 3/3/1 12/12/1 
f 12/12/1 5/5/1 13/13/1 
f 13/13/1 7/7/1 14/14/1 
f 15/15/1 10/10/1 16/16/1 
f 16/16/1 11/11/1 17/17/1 
f 17/17/1 12/12/1 18/18/1 
f 18/18/1 13/13/1 19/19/1 
f 20/20/1 15/15/1 21/21/1 
f 21/21/1 16/16/1 22/22/1 
f 22/22/1 17/17/1 23/23/1 
f 23/23/1 18/18/1 24/24/1 
f 2/2/1 4/4/1 3/3/1 
f 4/4/1 6/6/1 5/5/1 
f 6/6/1 8/8/1 7/7/1 
f 8/8/1 25/25/1 9/9/1 
f 1/1/1 3/3/1 11/11/1 
f 3/3/1 5/5/1 12/12/1 
f 5/5/1 7/7/1 13/13/1 
f 7/7/1 9/9/1 14/14/1 
f 10/10/1 11/11/1 16/16/1 
f 11/11/1 12/12/1 17/17/1 
f 12/12/1 13/13/1 18/18/1 
f 13/13/1 14/14/1 19/19/1 
f 15/15/1 16/16/1 21/21/1 
f 16/16/1 17/17/1 22/22/1 
f 17/17/1 18/18/1 23/23/1 
f 18/18/1 19/19/1 24/24/1 
# 0 polygons - 32 triangles

